<svg width="24" height="24" fill="none" xmlns="http://www.w3.org/2000/svg"><g clip-path="url(#clip0_1_321)"><mask id="a" style="mask-type:luminance" maskUnits="userSpaceOnUse" x="0" y="0" width="24" height="24"><path d="M24 0H0v24h24V0z" fill="#fff"/></mask><g mask="url(#a)" fill-rule="evenodd" clip-rule="evenodd" fill="#EEF2F5"><path d="M7 21a2 2 0 114 0 2 2 0 01-4 0zm11 0a2 2 0 114 0 2 2 0 01-4 0zM0 1a1 1 0 011-1h4a1 1 0 01.98.804L6.82 5H23a1 1 0 01.982 1.187l-1.601 8.398A3 3 0 0119.39 17h-9.7a3 3 0 01-2.99-2.414L5.03 6.239a.994.994 0 01-.017-.084L4.18 2H1a1 1 0 01-1-1zm7.22 6l1.44 7.195a1 1 0 001 .805h9.76a1 1 0 00.998-.802L21.792 7H7.221z"/></g></g><defs><clipPath id="clip0_1_321"><path fill="#fff" d="M0 0h24v24H0z"/></clipPath></defs></svg>