<svg width="20" height="18" fill="none" xmlns="http://www.w3.org/2000/svg"><g clip-path="url(#clip0_1_314)"><path d="M8.837 16.788L2.595 10.86C2.325 10.618 0 8.46 0 5.775 0 2.452 2.152.25 5.758.25 7.326.25 8.81 1.085 10 2.075 11.186 1.085 12.674.25 14.242.25 17.716.25 20 2.32 20 5.775c0 1.905-1.204 3.792-2.58 5.082l-.015.014-6.242 5.917c-.31.296-.728.462-1.163.462-.435 0-.853-.166-1.163-.462zM3.86 9.596L10 15.43l6.129-5.814c1.034-.99 2.053-2.43 2.053-3.84 0-2.451-1.447-3.766-3.94-3.766-1.788 0-3.515 1.806-4.242 2.506-.644-.623-2.424-2.506-4.242-2.506-2.497 0-3.94 1.315-3.94 3.766 0 1.367 1.012 2.89 2.042 3.821z" fill="#EEF2F5"/></g><defs><clipPath id="clip0_1_314"><path fill="#fff" transform="translate(0 .25)" d="M0 0h20v17H0z"/></clipPath></defs></svg>