<svg width="15" height="23" fill="none" xmlns="http://www.w3.org/2000/svg"><path d="M12.313.5H2.687A2.062 2.062 0 00.626 2.563v17.875c0 1.16.902 2.062 2.063 2.062h9.624a2.063 2.063 0 002.063-2.063V2.563C14.375 1.446 13.43.5 12.312.5zM7.5 21.125a1.357 1.357 0 01-1.375-1.375c0-.73.602-1.375 1.375-1.375.73 0 1.375.645 1.375 1.375 0 .773-.645 1.375-1.375 1.375zm4.813-4.64c0 .3-.258.515-.516.515H3.203a.496.496 0 01-.515-.516V3.078c0-.258.214-.515.515-.515h8.594c.258 0 .515.257.515.515v13.406z" fill="#BA0000"/></svg>