<svg width="16" height="15" fill="none" xmlns="http://www.w3.org/2000/svg"><path d="M8 .11A7.264 7.264 0 00.734 7.374 7.264 7.264 0 008 14.641a7.264 7.264 0 007.266-7.266A7.264 7.264 0 008 .109zm0 13.124a5.84 5.84 0 01-5.86-5.859A5.858 5.858 0 018 1.515c3.223 0 5.86 2.637 5.86 5.86A5.858 5.858 0 018 13.235zm1.787-3.046c.176.117.381.087.498-.088l.557-.733c.117-.176.088-.38-.088-.498L8.82 7.434v-4.16a.378.378 0 00-.351-.352H7.53a.356.356 0 00-.351.351v4.834c0 .088.029.206.117.264l2.49 1.816z" fill="#BA0000"/></svg>