<svg width="30" height="26" fill="none" xmlns="http://www.w3.org/2000/svg"><path d="M13.256 25.294l-9.364-9.067C3.489 15.857 0 12.557 0 8.45 0 3.368 3.227 0 8.636 0 10.99 0 13.216 1.278 15 2.79 16.778 1.279 19.011 0 21.364 0 26.574 0 30 3.166 30 8.45c0 2.914-1.807 5.8-3.87 7.772l-.022.022-9.364 9.05A2.501 2.501 0 0115 26a2.5 2.5 0 01-1.744-.706zm-7.466-11l9.21 8.92 9.193-8.892c1.551-1.512 3.08-3.715 3.08-5.872 0-3.749-2.17-5.76-5.91-5.76-2.681 0-5.272 2.762-6.363 3.832-.966-.952-3.636-3.832-6.364-3.832-3.744 0-5.909 2.011-5.909 5.76 0 2.09 1.517 4.421 3.063 5.844z" fill="#BA0000"/></svg>