<svg width="23" height="38" fill="none" xmlns="http://www.w3.org/2000/svg"><g filter="url(#filter0_dd_93_571)"><path d="M13.889 29.976c-.146.006-.24.018-.333.018-1.998 0-3.99-.006-5.987.006-.28 0-.356-.077-.356-.363.005-4.74.005-9.484.005-14.223v-.411H4v-5.06h.315c.877 0 1.753-.006 2.629.005.222 0 .28-.065.28-.285a227.047 227.047 0 010-3.99c.006-.928.152-1.833.573-2.672.601-1.185 1.553-1.953 2.757-2.43.981-.392 2.015-.535 3.055-.553C15.303-.006 16.997.006 18.69 0c.158 0 .287-.006.287.22-.006 1.638-.006 3.275-.006 4.912 0 .018-.006.036-.03.113h-.32c-1.052 0-2.104-.006-3.155 0-.607 0-1.098.25-1.408.792-.093.16-.152.369-.152.56-.017 1.012 0 2.024-.011 3.036 0 .238.07.304.298.304 1.46-.012 2.92-.006 4.38-.006H19c-.204 1.702-.403 3.37-.608 5.054H13.89v14.991z" fill="#fff"/></g><defs><filter id="filter0_dd_93_571" x="0" y="0" width="23" height="38" filterUnits="userSpaceOnUse" color-interpolation-filters="sRGB"><feFlood flood-opacity="0" result="BackgroundImageFix"/><feColorMatrix in="SourceAlpha" values="0 0 0 0 0 0 0 0 0 0 0 0 0 0 0 0 0 0 127 0" result="hardAlpha"/><feOffset dy="4"/><feGaussianBlur stdDeviation="2"/><feComposite in2="hardAlpha" operator="out"/><feColorMatrix values="0 0 0 0 0 0 0 0 0 0 0 0 0 0 0 0 0 0 0.25 0"/><feBlend in2="BackgroundImageFix" result="effect1_dropShadow_93_571"/><feColorMatrix in="SourceAlpha" values="0 0 0 0 0 0 0 0 0 0 0 0 0 0 0 0 0 0 127 0" result="hardAlpha"/><feOffset dy="4"/><feGaussianBlur stdDeviation="2"/><feComposite in2="hardAlpha" operator="out"/><feColorMatrix values="0 0 0 0 0 0 0 0 0 0 0 0 0 0 0 0 0 0 0.25 0"/><feBlend in2="effect1_dropShadow_93_571" result="effect2_dropShadow_93_571"/><feBlend in="SourceGraphic" in2="effect2_dropShadow_93_571" result="shape"/></filter></defs></svg>