<svg width="30" height="30" fill="none" xmlns="http://www.w3.org/2000/svg"><path d="M29.985 14.995c0 2.103-.042 4.212.012 6.315.091 3.723-2.249 6.6-5.23 7.88a9.462 9.462 0 01-3.755.786c-4.07.006-8.145.06-12.214-.018-3.066-.06-5.587-1.342-7.395-3.868C.453 24.76 0 23.25 0 21.612V8.62c0-3.535 1.723-6.006 4.783-7.614C6.113.31 7.558.014 9.063.008c3.95 0 7.904-.024 11.852.012 3.066.024 5.624 1.197 7.51 3.662 1.052 1.378 1.56 2.961 1.56 4.702v6.611zm-27.754 0v6.647c0 .992.23 1.922.744 2.762 1.348 2.206 3.386 3.282 5.914 3.324 4.057.06 8.12.024 12.184.012.997 0 1.965-.205 2.866-.634 2.455-1.173 3.827-3.04 3.815-5.844-.024-4.29-.006-8.582-.006-12.872 0-1.215-.345-2.327-1.064-3.306-1.39-1.88-3.314-2.804-5.611-2.828-4.052-.048-8.103-.018-12.154-.012-.865 0-1.7.175-2.51.477-2.225.828-4.293 2.925-4.196 6.013.073 2.091.018 4.176.018 6.261z" fill="#fff"/><path d="M15.026 21.4c-3.9 0-7.044-3.105-7.05-6.973-.006-3.807 3.162-6.926 7.038-6.926 3.888-.006 7.044 3.107 7.05 6.944 0 3.831-3.15 6.95-7.038 6.956zm0-2.235c2.654 0 4.807-2.121 4.801-4.732-.006-2.586-2.159-4.702-4.801-4.702-2.655 0-4.82 2.11-4.82 4.714.007 2.61 2.165 4.726 4.82 4.72zM22.88 5.386c.817 0 1.482.695 1.482 1.547-.006.852-.677 1.541-1.493 1.535-.805-.006-1.464-.695-1.464-1.529-.006-.852.66-1.553 1.476-1.553z" fill="#fff"/></svg>